/* XPM */
static char *_46e0cf8d3cc4cb6a2b8dddf1137bd674NJQGqOLDZsGs97a[] = {
/* columns rows colors chars-per-pixel */
"64 64 235 2 ",
"   c #010000",
".  c #0B0603",
"X  c #0E0905",
"o  c #0F0B0A",
"O  c #0A070A",
"+  c #120C05",
"@  c #140D0A",
"#  c #1A0E0A",
"$  c #130904",
"%  c #1A1106",
"&  c #16110C",
"*  c #1C130C",
"=  c #1E1612",
"-  c #22150D",
";  c #291A0F",
":  c #25190D",
">  c #231613",
",  c #251B14",
"<  c #2B1D14",
"1  c #2B1C1C",
"2  c #321E13",
"3  c #2C2115",
"4  c #2D221B",
"5  c #332316",
"6  c #34241B",
"7  c #3B261C",
"8  c #372A1F",
"9  c #3D2B1D",
"0  c #372516",
"q  c #3D2C23",
"w  c #392825",
"e  c #3F3225",
"r  c #442D1D",
"t  c #492F1E",
"y  c #46321E",
"u  c #4C341F",
"i  c #4B3A1E",
"p  c #51341E",
"a  c #452E23",
"s  c #4A2F24",
"d  c #442E28",
"f  c #453224",
"g  c #4C3425",
"h  c #463229",
"j  c #4B352C",
"k  c #4D3C2E",
"l  c #523525",
"z  c #543A25",
"x  c #543C2C",
"c  c #5A3D2B",
"v  c #573928",
"b  c #563D33",
"n  c #623F2D",
"m  c #5D422E",
"M  c #5B4227",
"N  c #5C4232",
"B  c #5E453D",
"V  c #594636",
"C  c #64452D",
"Z  c #67452D",
"A  c #72492E",
"S  c #634434",
"D  c #654A34",
"F  c #6C4B35",
"G  c #654C3D",
"H  c #6C4C3B",
"J  c #684538",
"K  c #734D34",
"L  c #744E3C",
"P  c #794B35",
"I  c #6F523D",
"U  c #6E5135",
"Y  c #745336",
"T  c #7A5235",
"R  c #73533D",
"E  c #7D553D",
"W  c #7B593D",
"Q  c #77583C",
"!  c #74502E",
"~  c #5A4841",
"^  c #694A41",
"/  c #6E5042",
"(  c #745345",
")  c #7D5543",
"_  c #7D5A43",
"`  c #7A5D4B",
"'  c #7A544B",
"]  c #7B614C",
"[  c #7F6351",
"{  c #84563C",
"}  c #855B3D",
"|  c #8B5B3D",
" . c #955D3E",
".. c #89633E",
"X. c #946A3F",
"o. c #845D44",
"O. c #895C42",
"+. c #845D4C",
"@. c #8A5D4A",
"#. c #865745",
"$. c #935F49",
"%. c #865E55",
"&. c #846243",
"*. c #8B6345",
"=. c #85634C",
"-. c #8C644C",
";. c #8D6A4A",
":. c #8D6846",
">. c #946445",
",. c #9C6644",
"<. c #956A46",
"1. c #94654B",
"2. c #956B4C",
"3. c #9B6C4C",
"4. c #996948",
"5. c #9D724E",
"6. c #94724D",
"7. c #8D6453",
"8. c #896655",
"9. c #946653",
"0. c #9A6554",
"q. c #956B52",
"w. c #9C6D54",
"e. c #956C5A",
"r. c #9B6D5C",
"t. c #946359",
"y. c #9B7353",
"u. c #9D745C",
"i. c #947452",
"p. c #A46E4B",
"a. c #A76C49",
"s. c #A3734D",
"d. c #AB764E",
"f. c #AD7B4F",
"g. c #B2754E",
"h. c #B5794D",
"j. c #A26C54",
"k. c #A26D5A",
"l. c #A96D56",
"z. c #A57454",
"x. c #AB7554",
"c. c #AD7A55",
"v. c #A5745B",
"b. c #AC755A",
"n. c #A6795C",
"m. c #AC7B5B",
"M. c #A77956",
"N. c #B27552",
"B. c #B37B55",
"V. c #BC7D54",
"C. c #B37D5C",
"Z. c #BA7D5C",
"A. c #B4775A",
"S. c #9D6E62",
"D. c #9E7463",
"F. c #A47562",
"G. c #AB7461",
"H. c #A77C63",
"J. c #AC7B63",
"K. c #A87C6A",
"L. c #B27D62",
"P. c #BB7E63",
"I. c #B47A65",
"U. c #C27E5B",
"Y. c #C27C53",
"T. c #C77F64",
"R. c #AB825C",
"E. c #B58256",
"W. c #BC8356",
"Q. c #B4825C",
"!. c #BC845C",
"~. c #BD8A5E",
"^. c #AC8164",
"/. c #AB826B",
"(. c #B58263",
"). c #BC8463",
"_. c #BD8A64",
"`. c #B4856B",
"'. c #BB856B",
"]. c #BD8B6B",
"[. c #B6896B",
"{. c #BF936B",
"}. c #AD8673",
"|. c #B38774",
" X c #B68A74",
".X c #BB8C73",
"XX c #B68D7E",
"oX c #BC9375",
"OX c #C28457",
"+X c #C2855C",
"@X c #CB855C",
"#X c #C48A5E",
"$X c #C98B5D",
"%X c #D28E5E",
"&X c #C38664",
"*X c #CB8665",
"=X c #C48C64",
"-X c #CB8D64",
";X c #C2866B",
":X c #C38D6B",
">X c #CB8D6B",
",X c #CC876A",
"<X c #D48E65",
"1X c #D48D6A",
"2X c #D08661",
"3X c #CC9266",
"4X c #C4926D",
"5X c #CC926C",
"6X c #CC986B",
"7X c #D49366",
"8X c #D4946D",
"9X c #DB966D",
"0X c #DC9A6A",
"qX c #C28D73",
"wX c #CC8D72",
"eX c #D28F74",
"rX c #C59374",
"tX c #CB9473",
"yX c #CE9A73",
"uX c #CE9D7C",
"iX c #C5987A",
"pX c #D29673",
"aX c #D49C75",
"sX c #D29E7C",
"dX c #D99975",
"fX c #E79B6E",
"gX c #E29C7B",
"hX c #E39E71",
"jX c #D8A37C",
"kX c #E9A479",
"lX c #F4A47A",
"zX c #CC9A83",
"xX c #DC9F82",
"cX c #DCAA86",
"vX c #FFAA82",
/* pixels */
"8 z.3X=X=X] 4 o     . = G 6.3X3X_.=XrX.XrXtX.XiX X,     . x ].[.f       * n.wX_.#X!.*.Y -.4.<.B.~.#X3X3X3X].!.E.q.X % K !.Q.l & ",
"- M.-X3X4X4X^.] V V I y.^.R.6X=X:X:X>XB.( h k Q o..         g ;..         L !.=X#Xc.D @ * , 5 9 >.=X6X:X:X].~.=Xi   X Y W.Q.x - ",
", :.3X4X=XoXrXoX].{.uXyX3X_.3X3X3X=X;.o                       O.7         9 +X+X&X{ X         - s.-X=X]._.!.~.~.y   - :.#XB.y @ ",
"& 1.).:X{.[ e f & j {.yXrXyX{.tXoX].*                         Y B.<   . . < W.=X-X>.          % s.=X-X(.R.R.~.E.3   f E.3Xz.5 * ",
"7 B.:X_.H           * =.4X4XyXrXyXQ..                         a.+XW.P z C { V.W.$XM.&           g ~._.m.M.E.(.C   . S Q.>X-.X < ",
"o.-XL.f                 : ;.6XyX5X4Xk                       i ).@XU.+Xd.x.+XV.W.$X_.Q             <.E.E.R.n.R.0     z s.5.y < Q ",
"].(.f o                   @ 6.6XyX=X:X0 . > < - .       - K !.%X%XV.Z.V.Y.@XOX+X#X#X(.>           = d.!.B.y.M       & 9 5 * 2.~.",
":X( .                       e :XrXtX6X).>.R 4.O.1.p.m.x.+X=X7X=XW.r l | a.N.OXOX#X3X:X3.X         - } OXg.u             . } =X#X",
":Xg             @ < *       + Q.{.tX6X:XQ.!.C.B.+X5X6X8X7XOX5X+X|   . - 7 y x.#X=X3X6X:X2.&       & T U.N.l             U _._.3X",
"=.=           - F q._ q X     D ].yXtX:X=X4.l A y.:X].3X=X-X-X:.#           D !.!.3X5X_.(.<.;     X K Z.l.l         . M !._._.(.",
"* .       f Q 2.v._._.o.3     q tXuXoX5X#Xy . # > 9.J.)._.-XR.*             y W.3X=X5X=X(.E.v.J & % | !.B.l & * 3 r O.!.=X].[.&.",
".     . =.s.d.S I J.c.O.7     a wXaX5XoXq.        . . , H z 5               * g.$X-X:XZ.c.L.b.).x.x.).(.!.!.(.!.J.J.L.`.[.:X^.z ",
"  .   f i.6.T   . 7 L r &     6 qXtX8X4XG                                     p.Q.(.L.L.x.x.x.'.!.&X(.J.`.).:XQ.K.H.J.K._.4Xy., ",
"  * $ U y.;.<                   -.qXtX:Xq.                                    R (.n.v.F.:.w.c.B.=X).'.J.C.q.p.L.F.F.D.n.'.].i.6 ",
"x <   , X.<.4                   #.<XjX3X3X( @                                 E b.J.e.<   ; >.W.=X3X].`.L.Q y.o.d , , f &.R.^.:.",
"A.Z     < } <.v #             . m.3X:X4X4X=X+.7 < .         @               & w.C.b.0       + ..$X+X:X)...0 @             & I {.",
"&X#.      , &.s.5     0 a j ` y.rXrX4X5X4X4X5X]._.x.E x J 7.n.x +         & o.N.!.1.          % 5.!.V.Y                       ;.",
"(.j.&       & 7     < -X3XdXpXpXwXtX:XtX5X8X3X:X.X:XQ.Q.(.).[.C.m.L L g Q j.C.Q.#Xo.  + X .     U s.M.W                       3 ",
"=.z.E .             g -XdXpXgXaX6XrX].4X]._.:X_.).rX_.Q.m.(.#X].5X!.+XW.&XB.B.x.d.m X & . * X   g >.h.s.,                   O = ",
"< P p.P .           K >XaX6XjX3XwX5X).`.-._ -.Q.(.B.'.c.s.M.Q.B..X:XB.~.B.S < $ . X < & & 7 @   m n.Q.W.x                       ",
". v a.a.{ #         1.=X4XaX:XB.N f q *       f n.M.Q.B.!.c.H 5 g W 3.-.*       3 G ( j 7 3     <.Q.).).b.5                 .   ",
". l $.Y.h. .r ; - < Y.<X=X4XF.,                 h F.J.Q.-XN.n .     * * . $ * 9 _ e.%.a @ +   5 W.W.=X=Xm.8.+                   ",
"  6 o.&XfXfX<X8X+X@XZ.@X:X).k                     F b.L.).W...%   + . . # 6 G +.e.+.N ,   . * x.OXOX=XP.C.b.*.8                 ",
"6 L j.8XkXvXkXkXkX-XU.W.>X).a                       w.n.b.B.E @   . - X   . w _ J j w , X X a.+XZ.W.OXB.b.b.~.c.Y - . =       & ",
"9.n.-XkXkXkXlX9X9X0X4X+X:X>Xf                       S v.9.v.} ,     % #     > G h > > %   z B.!.!.c.&.m D 5._.E._.5.3     X f F ",
").:XrXuXcXjXcXjXdX5XB.+X+X:Xv.=       X             * j.b.v.b.+.S t .   . . = 6 < X     . z.C.B.C.z       5 M.c.B.z.f . + U d.m.",
"(.>.7 k yXcXjX9X1.0 . < B.:XrXH.=.E 1.y.=             F b.e.w.w.b.b.| $               . E c.Q.b.M           >.y.F.m.W f x 5.E.x.",
"(       G yXuXR         l ).(.[.:X&X+X).-.O           h v.u.S.F.(.Z.b.T 0 X   . # - a O.b.P.g.E             *.u.r.^.M.z.c.Q.!.4.",
"q       . /.e.            1.4X[.].).&XL.-.@           f J.(.v.J.(.Z.C.G.j.t.#.$.k.j.l.b.G.G.M.<           2 z.D.u.n.b.J.~._.n.u.",
"j         S B             l ;X4X'.L.P._ @             g L.(.L.J.&XP.b.G.F.b.j.r.G.A.j.1.G.-.a             Q b.F.J.K.J.J.J.C.b.M.",
"`         < q             f ].[.].z.9.*               S J.I.v.7.%.L S n 0.k.b.G.j.G.j.t.%.b     + .       w.C.C.b.m.(.Q.m.L.R.~.",
".Xh     . 7 >             x rX.X/.K.a                 -.B.x .           @ J 0.0.j.k.k.t.^ . . r L F 5     =.!.:XL.b.Q.E.m.^.(.W.",
" XeX+.' w.7.              7 J.[.].F.=         @ 8 h c c.L.2                 B %.r.0.k.t.#   a l.B.Z.T #   Q =X:XJ.A.!.c.b.n.(.).",
"`.;X;X' <                   7 I.&Xc.< o , , , x w.J.P.B.!.|                 $ %.G.b.G.J   . { g.Y.OX| &   m =X_.C.c.&.C m ;.(.=X",
"K.K.(                         z.rX&X$.N -.1.2.M.(.!.'.Q.L.z.q                 a &XP.J.a     S p.a.,.c .   J ~.^.-.+       6 y.:X",
"F.^ @                         _ :X>XZ.M.[.(.z.J.m.B.C.Z.c.J.u.6               * I.).v.C     . } S l >     2.Q.&..         @ M *.",
"@.<                 c &       ) :X:Xr.g S I S m N D n.C.3.( w.p..             @ l.G.b.0.#     < 0 * .   - R.R.:             2 W ",
"7.w o             < &X'     r rX3XB.<   o + X o . < 1.L .   # 9.j             - z.k.G.V.O..     < @   . -.R.:.              0 3.",
"(.9.j             N aXdXl.w.'.8X>Xj               g b.+       7 F             Z N.A.(.OX&X-.        % =.b.m.<.5             c B.",
"&X(.F.o       . x .XjXpXgXdXsXrXw.                E H         # 1.J * .       A N.h.Y.@X@X-XR < : g w.u.y.Q.c.F *         X } =X",
"[. X}.8.V ~ ( K.iXzXcXkXxXgX9XdXS                   >         & l.v.j.$.*     . { Y.N.+X-X@X7XL.B.4.m & 9 o.s.C < %       - 2._.",
"'.'..XXXXX}.XX}.b ( H.zXdXsXdXpXw                 . 1         . G.&Xb.k.+       # g.V.@X$X-X#XOX<.5     X 5 y 3 u z % 5 8 C s.#X",
"} +.oX|.}.}./.G     . j pXiXsX'.o       * 9 < . . 6 7.8         #.'.U.$.           .V.V.V.!.c.2.;             X M 6...4.f.=XE.~.",
"r X _ |././.8..         V pXyX].@     . g y.w.e 5 ) =Xc .       s rXqXG.6         >.@XP.{ #                     : } !.#X#X-X_.<.",
"@   = [.`.n.V           o `.aXtX,     + C ).#Xd.3.!.1.5         7 >XpX>X| .     r C.<X,..                         * ! #X!.=XQ.z ",
"      e.`.`               9.tX:X(       f d.-XOX!.n.< .         0 >X8X7XU.-   . j.*X$Xt                             : c.!.!.| & ",
"@ X   j k               & F.wX8X).>     # f <.s.c.r           . F 1X9XwXn       S &X>X-                             % c.#Xc.9 & ",
"                        8.zXrXsXqX9.@     .     $             # Z.8XfX<X<       $ x.&X{       * 2 t F P @           % _.!.Y X   ",
"                      , XXzXzXiXrX.XF.4                       L <X1X>Xx.          t *X<X{ p 1.<X$X$X<X5Xx..         v !.c.y     ",
"                      w rXiXzX|.].:XoX'.w                 $ H ,X1X+Xc X           5 U.U.2X@X%X1X9XhX9X*X9Xf       - c.B.3.g     ",
".                   . e.zXrXh @ 1 H '.tXL.0.l > O @ > s L A.,X;XP.*               s P.U.2X*X;X:X>XtX9X5X-Xb.<   0 p.B.B.1.W 8 - ",
"/ = .   @ B 4 @ o > 7.iXxX.Xo       w '.&X'.].&Xb.'.qX'.;X&X1X>Xg                 | P.'.U.G.b.b.P.L.z.4.>X-XP.k.B.N.p.e.w.3.x.f.",
"].r.w q I.'.:XK.[.:X).u.&XpXJ         x B.(.J.:XeXzXqXrX.XwX&X).@               $ A.*XP.S & . . * .     - <.P.I.B.z.3 * @.M.).&X",
":X-X`.`.9.m.qXqX>Xu.@   , / D.          j.P.m.'.eXqX|.A.(.=X1X1X@               v C.I.0                   n v.k.m.J     5 J.:X=X",
":XiX( o   . x ^.wX)         6 O         1.B.j.b.S.j @ . 6 7.&X:X1..         O x I.'.z                     +.I.m.o.      & *.(.].",
"3XJ.+         w L.,Xd                 . r.b.{ q .         . ) ).1XZ.J @ $ ' l.P.qXJ..                   7 Z.&XA.<         f B.=X",
"qX/ .           G `.k.                  #.v.@               . $.*X1X<XL.U.1XP.P.wXG.              S O.1.$X=X!.x.@           T #X",
"rXj               b D.=                 J.u.O                 > @X1X7X>X8X*X1X'.U.;X0             $.).#X=X+XB.| 6           - E.",
"J.S                 1 ` 4   O .   . * S v.B.( O               . G.P.r.L ( w.L 1.E.3.H - < f < . $ l.s.L.).).(.z.} >     X     % ",
"I.`.h             & = w %.r._ J j ( ).3X;XM.m.7.#             @ v.b         * { =Xa.&.H W C.2.S A b.x.(.).(.L.C.x.z   < N g &   ",
"( M.:XN .           e ^ . @.4X>X_.)._.4X].:X4X].a             n <           3 3.#XV.W.B.x.3X#XR.).!.(._.(.(.).n.c., . m n.t.8   ",
"q <.3X=X^             , w r.:X=X3X(.4X:X_.yX:X].G .     * w @.k             r s.=XE.5.W.!.!.#X~.-X&X#X:X=X:X=Xc.V.! + F b.n.q   ",
"8 z.3X#X4X` 4 O     . = G 5.3X3X_.:XrX.XtXrX XiX.X1     . x ].[.s       * n.rX_.#X(.*.Y *.4.<.B.!.=X3X-X-X:X!.E.y.X % K !.Q.g & ",
"- M.-X3X5X{./.] V b G i.^.m.3X=X:X:X1XB.( h x Q &.          g 2.          L !.-X#XM.D # * , 5 9 >.=X6X:X=X]._._.i   X P !.E.c - "
};
