/* XPM */
static char *eacb78b813254bccec7bffa5e5ed5f9803v1qOiiURtoKXj2[] = {
/* columns rows colors chars-per-pixel */
"64 64 144 2 ",
"   c #46271B",
".  c #49271B",
"X  c #46281C",
"o  c #4C2A1B",
"O  c #542D1C",
"+  c #5B2E1C",
"@  c #55311E",
"#  c #5D321D",
"$  c #622E1A",
"%  c #64331C",
"&  c #6B351B",
"*  c #64381F",
"=  c #6C391D",
"-  c #743617",
";  c #74371B",
":  c #76371B",
">  c #753619",
",  c #71351D",
"<  c #70361C",
"1  c #70371C",
"2  c #71371C",
"3  c #73361C",
"4  c #74371D",
"5  c #73361A",
"6  c #783619",
"7  c #7B3719",
"8  c #7A3619",
"9  c #70381B",
"0  c #71381B",
"q  c #71391B",
"w  c #73381A",
"e  c #73381B",
"r  c #72391B",
"t  c #73391B",
"y  c #733A1B",
"u  c #733B1B",
"i  c #743819",
"p  c #773919",
"a  c #75381A",
"s  c #74381B",
"d  c #75391B",
"f  c #76381A",
"g  c #76391B",
"h  c #753A1B",
"j  c #773B1B",
"k  c #70381C",
"l  c #73381C",
"z  c #72391C",
"x  c #72381D",
"c  c #713A1C",
"v  c #733A1C",
"b  c #733A1D",
"n  c #723B1D",
"m  c #70381E",
"M  c #70391E",
"N  c #713B1E",
"B  c #77391C",
"V  c #743A1C",
"C  c #753A1C",
"Z  c #743B1C",
"A  c #753B1C",
"S  c #773A1C",
"D  c #713C1E",
"F  c #753C1C",
"G  c #763D1C",
"H  c #743C1F",
"J  c #773E1E",
"K  c #743A1C",
"L  c #793818",
"P  c #793919",
"I  c #7B3A19",
"U  c #7A3B19",
"Y  c #7C3818",
"T  c #7D3818",
"R  c #7E3919",
"E  c #7E3A19",
"W  c #7C3A1B",
"Q  c #7F3B1A",
"!  c #793D1B",
"~  c #7B3C1A",
"^  c #7A3D1B",
"/  c #7B3E1B",
"(  c #7F3D19",
")  c #7C3E1B",
"_  c #79391C",
"`  c #783A1C",
"'  c #7A3F1C",
"]  c #7B3C1B",
"[  c #613320",
"{  c #663620",
"}  c #653520",
"|  c #6B3721",
" . c #6C3621",
".. c #6E3620",
"X. c #6C3621",
"o. c #673821",
"O. c #6A3921",
"+. c #76401F",
"@. c #7C401C",
"#. c #7F401C",
"$. c #7C411D",
"%. c #803717",
"&. c #873B17",
"*. c #833D17",
"=. c #853C17",
"-. c #8B3D17",
";. c #893E17",
":. c #8A3F17",
">. c #8B3F17",
",. c #8B3D17",
"<. c #813A19",
"1. c #823B18",
"2. c #813B1A",
"3. c #813D18",
"4. c #823C18",
"5. c #833C18",
"6. c #823D18",
"7. c #823D19",
"8. c #833E18",
"9. c #803E1A",
"0. c #813F1A",
"q. c #843D18",
"w. c #853F18",
"e. c #863E18",
"r. c #873F19",
"t. c #823D19",
"y. c #883F18",
"u. c #893E18",
"i. c #8F4117",
"p. c #84431B",
"a. c #894018",
"s. c #884119",
"d. c #8B4319",
"f. c #8B441A",
"g. c #8F481B",
"h. c #914217",
"j. c #924417",
"k. c #944316",
"l. c #994717",
"z. c #9B4A17",
"x. c #914619",
"c. c #924518",
"v. c #92491A",
"b. c #9E4D18",
/* pixels */
"2.B 4 & $ & & % % $ % % $ % % & % # % # # + $ & , : & : - - - - - w B & % O o o o + + % & * & & D i 9._ 4 & % & & % % + % % $ % ",
"* % [ } , 3 &  .& & & & * = % % $ $ + $ % }  ...3 , % & & % # # # # + %  .% & & % & 3 B 7 w.G = * % } % % % & ,  . .& & & & * & ",
"w 5 : 6 & & % # + * % O O O + # + O O + @ @ # # %  .* % % & & 9 & * % & : i w & & & * w ( ~ H G = & B & i 6 & & & + + } % @ O + ",
"% * B _ W 2.W i 4 2.W 4 & H 3 < & % & % & & & , &  .% & = % + # + # $ & % * & & * & i H O.= = & % & % * i 6 I T _ 3 _ 2.W B & D ",
"* & % + & - - - < : i i w H w & = - w 9 & % % % & + % % & + + % % + + % $ % } & & D J o.# # * & * G & = % + & - : i : - i i w = ",
"% % % % $ + & - = & & B ' 9.9.s.s.d.p.*.T Y &.;.w.7 -.-.a.%.L I i H & & & 3 H 3 B i 3 }  .& % * & & % $ % % % $ & i & % & G ~ 9.",
"~ I ~ G U ( ( %.;.1.y.5.: H H & = & % % % 9 & & & % = = % - U s.x.c.d.-.&.w.: - ( B * & H : & & i ' ~ _ I p U U ( *.&.2.y.&.i H ",
"% $ % + % $ & & & $ % # + # + % % 9 w & - - - & & & w & & # @ + # i s.d.h.>.y.w.1.6 6 < - & % $ + % % % % + % % & & & % % # # + ",
"_ < 8 : & & & & $ & < < & < < & & < 3 & & & w < _ I p.p.W : 3 * # O O + # % & - T T ;.-.d.g.W i _ 7 6 : 8 3 5 & & & $ - & < & - ",
"h.-.-.,.%.1.T 6 T =.&.7 8 - i _ 6 3 3 - 5 H B i i - ( ( ( s.w.( G G * % @ . .   . # ( i.l.l.h.h.x.k.>.-.,.,.%.5.%.- T &.&.8 6 - ",
"-.,.-.-.>.>.,.&.T T i 3 = & & % % + # % * % % & * w & = = * O.= w & = * @ X . o # w i.b.b.b.l.c.k.-.y.-.,.,.d.>.,.&.T W B 3 & & ",
"G w $.$.G W ' w % % $ + # O O o . . . O + + & : $.( p.p.#.+.G G G _ W < & w : _ >.l.b.b.b.l.v.s.9.Q G B $.G G i _ < % $ $ + # @ ",
"# # o.% + % % # % w ( *._ - - & & & & : $.( d.j.j.g.W _ 9.5.w.5.Y I G & 4 : I p.s.p.( ~ & % + O O O # # % % # % % % % : ( *._ : ",
"( p.f.i.l.l.k.k.x.v.w.w % + O o o O O O O o o @ # % % # + # # [ # # % # * % * % # o O @ @ O & = & H $.p.d.h.l.k.k.k.j.v.9.w % + ",
"9.( ( p.s._ i & < - : < 6 8 Y - _ T 2.$.( $.9.d.;.>.>.d.w.Q ( ( ~ *.w.*.W 9.9.9.9.W 7 7 -.d.k.c.x.g.p.9.1.;.p.~ - 9 < 3 6 & 8 8 ",
"' $.* & & w $.$.w 3 H - & % # + # # # # # } * * * = & = G ' i G w = i _ - G w D $.' ( ' $.p.w.i : ' J ' * & & w @.@.B = = - - % ",
"% % % % = = +.@.w * # @ O @ o X o O @ # O O # # * O.O.= < & = = = - p p - i p p @.@.p i = = = = & & * % % & = = +.G i & # @ @ o ",
"# # % H = & = - H & % # O O O O o O @ O # % * = w * = = & = & & u = +.i +.9 % = 9 = = * = * * # # # # + * D & & w - w * % # O @ ",
"H I p.( ~ I - G D = = & = H = O.= D D H u = = - ' & = w w w i _ ~ #.#.#.@.p i +.+.@.G #.+.u @.9 D D = ~ #.( ~ _ w ~ G H * & = D ",
"G < & G = = = * & = B < < G ( i i i B = = +.+.~ ~ i i D = w H w - G i p @.@.@.@.@.@.p ( *.#.@.@.( ~ ~ w w +.= = * * & * B 4 w G ",
"s.;.G B * w w = & i ( 1.$.s.p.#.G ( $.+.+.#.p.p.f.s.9.9.i H S J @.+.@.#.a.s.p.p.p.p.p.p.d.d.g.d.f.f.s.*.G G * w w & = H W 9.p.9.",
"# # # # % = 3 H % * H G ( i & = % * = O.= = 9 =  .O.= * % * } o.% = D +.@.#.@.+.+.i $.$.p i +.9 D = % # # # % & H H % & w ' ( i ",
"& < 6 W _ p.f.w.w.d.g.g.p.D O.= = ~ +.p.p.$.s.p.$.p.p.( p.( J ` ~ s.i.l.z.z.b.b.b.v.b.g.s.#.#.G & & & < _ W ~ 9.d.;.w.s.f.v.p.D ",
"p.T p.s.9.( s.( 9.d.v.v.g.p.p.p.p.f.g.p.g.p.f.f.f.p.p.f.p.p.p.f.f.x.x.z.l.z.b.z.b.b.b.b.z.b.l.v.v.g.s._ ;.*.9.p.p.( 9.g.v.v.f.p.",
"l.l.x.i.x.f.r.p.9.+.$.p.p.p.p.p.f.x.f.p.p.p.$.p.p.9.f.p.p.$.J +.p.f.g.g.g.v.b.g.p.p.v.v.v.v.x.l.z.z.l.c.x.h.g.f.w.s.$.$.$.p.p.s.",
"v.v.i.g.f.x.v.v.v.p.v.b.b.x.g.f.p.p.+.+.+.p.$.p.' 9.' ' p.p.p.p.p.p.p.p.p.p.$.$.$.s.p.p.p.i.i.i.k.c.v.v.x.d.g.v.v.g.g.p.v.b.v.g.",
"h.c.b.b.b.b.z.b.b.b.b.b.b.c.c.c.v.g.p.p.p.p.p.f.g.p.p.p.p.g.g.f.f.f.p.f.p.p.g.v.c.-.~ *.p.( *.;.' p.x.k.z.z.b.z.z.b.b.b.b.b.b.v.",
"% = G G y.f.v.v.b.l.b.b.b.c.c.g.w._ B G _ ' ` 9.J p.p.f.p.p.p.~ +.* * = +.p.s.g.g.a.a.j.;._ 1._ 3 3 * = B ~ s.f.v.v.z.z.b.z.z.c.",
"= D = G = D $.p.S ' $.$.p.J ' B H & & * & * & * ..o.* * = H * = & & & & G p.' = * % * D * # # # # % & O.D J O.H $.p.J ( 9.$.p.$.",
"d.g.f.g.f.f.f.f.p.f.f.p.s.p.$.' J G +.D H 6 9.w.r.s.p.p.9.G G ( ( _ 9.9.( ( _ G H & w w = & = G w.d.g.f.f.f.f.f.f.f.p.p.f.p.s.p.",
"i $.~ ( $.p.( J J J J ' 9.' H 4 B ' _ _ 6 = H i J B G G D & = < H 3 Q W < H : : 3 & = * = = D w H ~ i ( ( $.9.9.9.J +.' ' $.( ' ",
"D G G ( p.$.( $.$.J J H ' p.W 9.( ' ' B B & = < H _ B = = G H H H & & = H & * & = H ~ i ~ #.i ( ~ ~ D D B 9.$.$.$.p.$.H H = ' p.",
"# # # = * = = = - = = = & H G D D = = & & < & = = & = & % # # # O o O O O O % % * G _ H & = u = # # # # % * * = = 9 9 = = 9 = 9 ",
"* = = = = = u ~ ~ #.I i w i G i w w i w w < * O.* % # # # @ O @ O . X . o @ O # & _ G D = % % % % % % = = * 9 = 9 U @.#.- - u - ",
"@.p - #.#.@.i ( G @.i u H - i w i - : i i G = 3 w * & * # # # # # # @ # % = w = * G ( _ i < & = +.+.@.G I ( #.#.@.U @.~ ~ i u - ",
"x.i.l.k.,.;.1.1.( *.1.;.p.( ( p.2.9.2.W ( w.y.>.i.-.w.w.9.$.9.7 2._ - - T _ 3 : - - = _ #.p.d.T U f.i.i.j.j.i.;.( T *.( *.=.p.#.",
"@.i w & + @ @ O @ @ # * # # # # # # [ # # # # % * # @ o o O + O O o O + + % & &.v.v.k.c.l.k.d.s.d.p.G < - & O # @ O @ # # * # # ",
"o o O O + < U ( p.s.p.W ~ < = G i W 9.p.s.( 9.9.g.l.c.f.9.' G H < & & 3 - 2.9.( i & % % $ # % % # # O o O O + = G ( p.-.p.~ ' = ",
"~ p.f.g.z.b.b.z.k.-.W I G = : W _ G +.D G ~ p.p.( 9.i * # + + . . o o o O @ O + + + < _ _ G ' +.+.p @.p.d.x.l.b.b.b.k.-.W W G = ",
"c.k.c.l.b.b.b.>.: + O o . O % & & u D = * & & & = * * % * * % % % + % % & & & i _ W &.>.h.h.,.,.;.i.k.k.c.l.b.b.b.i.< $ O o o O ",
"h.k.h.j.k.l.k.*.% .     o O % * w ( p.p.w.( p.( G B i i _ < - < - 8 : - 6 6 8 %.%.8 6 7 1.( ,.h.-.-.h.h.h.h.k.l.k.*.% . X . o O ",
"8 T T 1.-.a.;.*.W T : - & # + O @ @ % = B $.p.$.~ & w i 6 & & = & & & < - & , , & & & & % - - i & w I _ I 1.;.;.;.*.W T - - & # ",
"+ # # $ & & < - I T w.-.i.i.h.;.I % + # # % & & & & & 4 _ & % = & % % % + # % % % % & & % $ # % % + + % + $ & < < : 6 T ;.a.i.i.",
"( ~ - & - H & & < _ i _ ( W &.>.h.j.*.~ & % * o.% % & & & & & % & - < 3 H : 2.w.;.;.1.%.( U I _ I I ( ~ - - i H & % < _ i I ( W ",
"& % % & & & * & _ w w i G = & & : 6 7 %.*.;.-.-.2.2.w.9.T *.*.-.d.p.9.9.W i H & % & H & $ $ & & $ & & $ % & % % & = G w w i B O.",
"& * * = & # & ' i * * * % % % + + $ * + # & & % + % % % % % = < = w w = = ~ 6 _ H 3 : B H & O % * u - = * & & % * +.w * * * % % ",
"& & * D O.= = & * % & & % } % # # # $ + % & & % & & & & & % % % % & & H G & _ Q _ : w Q 1._ i w % * % % * G = = H & % % & & % % ",
"& & D 3 ( ' B  .* & & B i < & & % & $ & & % } $ % * # # + # O O O + # O O O # # % + # % & * - : w p % = D 3 ( G H & & & & H w : ",
"% % = G W %.W & & & & & * % [ # # % % % } &  .&  .& O.O.% # + + + + & * * & & & & &  .&  . .# % % * % * O.B 2.Y W < & & & & * % ",
"w w = = 3 & & % + o . O + $ & 4 _ 6 i i B B : 5 i 4 5 % + % $ $ $ & * % % # + * % & & & &  .& H _ 9.i w 3 & = H % % + o . O + $ ",
"2._ 4 & % & & % * + $ % $ & & & $ + [ # # @ % & < i & w < - - - - - _ < & O . o o + + } & * & & 3 H 9._ 4 & % & & & % + % % $ $ ",
"} } % % & , ,  .& & & & & * % % $ + $ % % }  . .6 & %  .= % % # + + + +  .% & & % & 3 _ 7 w.w H & % * } % % & < &  .& & & & * O.",
"H & i _ & & % # # % % O O # O # O + O O O O # % %  .% & % & & & & % * & , B w & & & & B ' _ w ' = * u & - _ & & % # + * % @ O + ",
"% & i - 1.1.W : B 2.( H & D S & & & & & & & & & & & % *  .$ % # $ # + & & % & & % % H H = = = * & & % % i _ W T Q 4 6 w.W w & H ",
"* = % % & & : - < : i _ & H H & H & w w & % * $ & + & & % + + % % # + % $ % * & & H G } # % % & & D * & * % & - < : < - i i H & ",
"% $ $ % $ $ & < w % & i ' 9.9.r.s.i.9.9.*.7 *.;.5.W -.-.-.1.T _ B B & & & w < = w H 3 & % & * * % & & $ % $ $ $ & : = & & u ~ 9.",
"U I ~ ~ U U *.%.;.1.y.5.: 3 = H & & & & % - & & % % = = % - _ -.x.x.h.-.&.w.6 _ ( i & & H w & & i ( ~ I U G _ ( W *.=.%.a.*.- H ",
"# % % # % $ & & $ % % + + % + # % & & < = - - & & w & & % # @ + # w p.s.h.>.;.;.1.8 : < & w % % # + % % % % $ $ & & & $ & # # + ",
"_ - 8 - - & & & & & - 5 & & & 3 & 5 &  .* & - i i I p.p.( i = * @ O O + # % & - I T ;.-.i.i.#.i _ _ _ - - 8 & & & & $ & 5 < - & ",
"h.-.-.&.T Y T _ Y =.%.Y 6 : B B 6 3 : 5 < i i _ i I ( *.( s.s.( ' G * % @ . .     # ( j.c.k.i.j.k.-.>.-.;.,.W 2.%.8 T =.=.8 8 - ",
"-.-.-.-.i.h.-.&.( _ i H H & % % % + % [ * % * * * = & & = * = = = - = * @ X . o # - h.b.b.b.l.c.l.h.-.,.-.-.i.h.-.&.W _ : 3 & & ",
"- G $.G G _ i H % $ $ + + O O o . .   O + $ & w #.( p.p.#.D $.G G _ W < & w w ( ,.k.b.b.b.b.x.a.9._ G B $.~ G G _ w % % $ + # O ",
"# % o.* $ # % # % w ( *.T - - & & 5 & : ' W p.x.c.g.( B 9.&.*.;.Y I ' & H w _ p.p.#.#.U = $ @ O o @ # # % * + % % # % i ( *._ : ",
"$.p.d.>.l.l.c.k.x.v.s.- $ + O o o o O O O o O # # % # # @ # # # # # # # * # % % # @ O @ @ @ & = w = #.p.i.>.l.l.k.c.j.v.9.- % + "
};
