/* XPM */
static char *_a2e4d7e1f5b48e78c221b7935d5e4a7kf67e90Fc3xptMFH[] = {
/* columns rows colors chars-per-pixel */
"64 64 221 2 ",
"   c black",
".  c #010101",
"X  c gray2",
"o  c #060606",
"O  c gray3",
"+  c gray4",
"@  c #0B0B0B",
"#  c #0C0C0C",
"$  c #0E0E0E",
"%  c gray6",
"&  c #101010",
"*  c #111111",
"=  c gray7",
"-  c #131313",
";  c gray8",
":  c #151515",
">  c #161616",
",  c gray9",
"<  c #181818",
"1  c #191919",
"2  c gray10",
"3  c #1B1B1B",
"4  c gray11",
"5  c #1D1D1D",
"6  c #1E1E1E",
"7  c gray12",
"8  c #202020",
"9  c gray13",
"0  c #222222",
"q  c #232323",
"w  c gray14",
"e  c #252525",
"r  c gray15",
"t  c #272727",
"y  c #282828",
"u  c gray16",
"i  c #2A2A2A",
"p  c gray17",
"a  c #2C2C2C",
"s  c #2D2D2D",
"d  c gray18",
"f  c #2F2F2F",
"g  c gray19",
"h  c #313131",
"j  c #323232",
"k  c gray20",
"l  c #343434",
"z  c #353535",
"x  c gray21",
"c  c #373737",
"v  c gray22",
"b  c #393939",
"n  c #3A3A3A",
"m  c gray23",
"M  c #3C3C3C",
"N  c gray24",
"B  c #3E3E3E",
"V  c #3F3F3F",
"C  c gray25",
"Z  c #414141",
"A  c gray26",
"S  c #434343",
"D  c #444444",
"F  c gray27",
"G  c #464646",
"H  c gray28",
"J  c #484848",
"K  c #494949",
"L  c gray29",
"P  c #4B4B4B",
"I  c #4C4C4C",
"U  c gray30",
"Y  c #4E4E4E",
"T  c gray31",
"R  c #505050",
"E  c #515151",
"W  c gray32",
"Q  c #535353",
"!  c gray33",
"~  c #555555",
"^  c #565656",
"/  c gray34",
"(  c #585858",
")  c gray35",
"_  c #5A5A5A",
"`  c #5B5B5B",
"'  c gray36",
"]  c #5D5D5D",
"[  c gray37",
"{  c #5F5F5F",
"}  c #606060",
"|  c gray38",
" . c #626262",
".. c gray39",
"X. c #646464",
"o. c #656565",
"O. c gray40",
"+. c #676767",
"@. c #686868",
"#. c DimGray",
"$. c #6A6A6A",
"%. c gray42",
"&. c #6C6C6C",
"*. c #6D6D6D",
"=. c gray43",
"-. c #6F6F6F",
";. c gray44",
":. c #717171",
">. c #727272",
",. c gray45",
"<. c #747474",
"1. c gray46",
"2. c #767676",
"3. c #777777",
"4. c gray47",
"5. c #797979",
"6. c gray48",
"7. c #7B7B7B",
"8. c #7C7C7C",
"9. c gray49",
"0. c #7E7E7E",
"q. c gray50",
"w. c #808080",
"e. c #818181",
"r. c gray51",
"t. c #838383",
"y. c #848484",
"u. c gray52",
"i. c #868686",
"p. c gray53",
"a. c #888888",
"s. c #898989",
"d. c gray54",
"f. c #8B8B8B",
"g. c gray55",
"h. c #8D8D8D",
"j. c #8E8E8E",
"k. c gray56",
"l. c #909090",
"z. c gray57",
"x. c #929292",
"c. c #939393",
"v. c gray58",
"b. c #959595",
"n. c gray59",
"m. c #979797",
"M. c #989898",
"N. c gray60",
"B. c #9A9A9A",
"V. c #9B9B9B",
"C. c gray61",
"Z. c #9D9D9D",
"A. c gray62",
"S. c #9F9F9F",
"D. c #A0A0A0",
"F. c gray63",
"G. c #A2A2A2",
"H. c gray64",
"J. c #A4A4A4",
"K. c #A5A5A5",
"L. c gray65",
"P. c #A7A7A7",
"I. c gray66",
"U. c #A9A9A9",
"Y. c #AAAAAA",
"T. c gray67",
"R. c #ACACAC",
"E. c gray68",
"W. c #AEAEAE",
"Q. c #AFAFAF",
"!. c gray69",
"~. c #B1B1B1",
"^. c #B2B2B2",
"/. c gray70",
"(. c #B4B4B4",
"). c gray71",
"_. c #B6B6B6",
"`. c #B7B7B7",
"'. c gray72",
"]. c #B9B9B9",
"[. c gray73",
"{. c #BBBBBB",
"}. c #BCBCBC",
"|. c gray74",
" X c gray",
".X c gray75",
"XX c #C0C0C0",
"oX c #C1C1C1",
"OX c gray76",
"+X c #C3C3C3",
"@X c gray77",
"#X c #C5C5C5",
"$X c #C6C6C6",
"%X c gray78",
"&X c #C8C8C8",
"*X c gray79",
"=X c #CBCBCB",
"-X c gray80",
";X c #CDCDCD",
":X c #CECECE",
">X c gray81",
",X c #D0D0D0",
"<X c gray82",
"1X c #D2D2D2",
"2X c #D5D5D5",
"3X c gray84",
"4X c #D7D7D7",
"5X c gray85",
"6X c gainsboro",
"7X c #DDDDDD",
"8X c #E1E1E1",
"9X c gray89",
"0X c gray92",
"qX c gray93",
"wX c gray94",
"eX c #F4F4F4",
"rX c #F6F6F6",
"tX c #F8F8F8",
"yX c #F9F9F9",
"uX c gray99",
"iX c white",
/* pixels */
"3.r.y.8.| h h | y.5.8.y.8.r.3.Q l h P 5.h.8.5.r.#.y.y.X.n i P ;.=.r.#.;.h.8.{ h l { 3.d.;.#.h.5.8.` a l #.r.8.y.d.8.r.h.8.Q h n ",
"8.8.{ l a l i < q | d.h.h.X.a < w w i S | d.d.=.y.X.a 7 l i ; i 3.3.r.l.=.q 7 M h - < X.d.3.#.#.i q n M < w { 5.;.h.d.| G a i a ",
"d.#./ | 3.8.3.{ n l #.h.;.Q { =.3.8.5.` S { ;.` ` a S 3.d.d.8./ i =.V.=.M T X.#.{ ` T S ;.V.#.q ` 5.b.b.=.M a S / #.{ S ` 5.r.8.",
"A.#.| r.8.| / / X.i S 3.| | l.P.b.V.F.8.S M { X.n i / r.5.y.A.h.| ;.d.| S { { ` ` | { G #.l.3.#.y.b.y.5.5.` h h | / n G 8.P.A.b.",
"d.3.5.3.#.3.y.r.3.;./ P X.8.y.h.d.8.r.5.{ ` ;.8.#.y.;.X.r.r.8.F.y.X.=.#.| ;.;.5.8.3.;.{ | #.{ r.l.8.5.#.{ 3.r.| 5.=./ { 3.5.5.r.",
"y.d.y.;.| 3.d.8.h.h.8.#.3.r.r.8.d.d.8.;.;.5.r.8.3.h.5.#.y.y.5.y.y.h.l.;.#.y.d.5.5.y.r.X.;.h.d.r.5.r.r.3.#.5.8.=.8.r.5.;.=.3.8.r.",
"8.d.d.8.8.r.8.y.5.r.l.V.l.y.r.;.5.y.5.3.d.h.8.y.A.d.r.8.#.3.d.5.r.y.r.d.d.3.8.h.d.8.3.d.l.d.h.y.5.d.3.X.8.r.8.V.y.r.h.y.=.3.r.;.",
"d.P.A.r.8.r.8.r.5._.P.8.A.V.r.d.r.d.5.y.!.P.r.r.P.l.d.d.y.r.r.r.F.P.h.A.P.8.5.r.y.8.8.P.A.d.F.P.d.3.8.d.8.r.A.I.r.5.F.I.r.3.y.r.",
"8.l.]._.d.3.8.8.d.!.y.3.h..XV.y.5.y.r.!.#Xl.8.r.8..XI.5.h.y.r.E.:X8.8.l._.E.3.3.8.;.E.].y.8.y.#XV.3.d.h.5.F.].8.r.3.y.XXE.5.r.r.",
"8.=.y.].:XXXE.P.!.3.8.;.l.r.].*X_.XX!.P.l.;.5.l.5.l.!.:X:XXX.XXXd.8.r.l.b.].!.:X4X].*XP.h.8.y.l.].].XX5X5X.Xl.3.8.8.y.P.XX#X].I.",
"` ;.r.b.E.].I.V.5.8.h.V.5.8.5.#.8.l.V.h.r.3.#.5.d.=.d._..XI.r.Q / X.l.r.l.d.P.I.E.P.b.A.r.b.;.` | h.E.XX.Xh.3.d.h.3.y.h.y.P.I.y.",
"` ` / { ` n S =.h.b.l.3.3.T S G - $ l ` y.F.y.y.d.A.h.` w - w Q T / S 5.r.h.| G G ` r.5.8.T { Q X.l ; w ` l.I.b.d.A.P.5.| M $ q ",
"r.h.{ q 7 l l w a y.y.y./ ;.M w l w a i / l.b.b.h.#.l - - q a h ;.;.5.` | l n q q l w Q ` 8.3.3.w w i < ; h =.b.b.r.l.| q w a h ",
"8.{ n S #.5.r.y.{ i #.5.X.q ` #.r.y.5.S h | r.8.=.n T ;.3.8.5./ a ;.r.#.w P | r.d.=.T q X.5.#.a P 3.8.3.#.S h =.8.r.` w G =.3.l.",
"5.;.X.| ;.y.y.=.8.` =.8.Q / r.y.;.y.d.3./ ` 8.8.{ T X.y.5.8.d.5./ { 5.T ` 3.5.5.5.h.8.{ Q 3./ ` r.h.5.;.5.{ S / 3.;.| { ;.d.y.X.",
"y.X.;.l.l.8.8.r.y.5.X.#.=.d.y.y.d.5.;.h.3.` 5.r.| d.y.;.8.y.5.r.3.X.3.X.#.d.3.d.r.5.d.X.;.8.| r.y.3.3.5.5.h.y.Q ;.5.{ ;.d.;.;.8.",
"r.y.r.y.l.y.5.y.r.8.5.l.h.y.;.8.r.8.8.r.r.5.5.8.d.3.8.h.y.5.r.8.y.r.8.y.y.r.r.y.r.y.5.y.r.;.r.r.r.5.3.8.d.8.5.y.y.3.8.h.r.5.8.8.",
"d.b.h.8.y.l.d.r.8.A.E.d.F.8.r.l.y.y.r.y.V.A.b.y.P.h.r.y.y.y.r.5.8.h.P.F.b.d.5.;.;.d.y.b.V.b.V.y.3.3.d.l.h.y.d.b.5.8.l.l.5.3.r.r.",
"5.V.I.b.5.3.;.X./ h.h.l._.E.5.;.y.y.l.P.I.V.8.X.3.8.d.l.V.l.8.5.E.l.l.E.!.h.#.X.=.#.5.I.!.l.l.F.8.5.y.d.5.8.y.8.X.;.b.I.A.y.r.8.",
"h.I.:X.X5.Q Q Q 8.h.| =.b.:XE.E.V.l.A.E.V.=./ { | 8.y.5.y.l.I.#XqXE.y.b.A.8.| { { / =.V.F.h.P.1X].V.h.y.3.8.8.` ` Q =.V.I.V.h.h.",
"8.r.V.A.d.l.I.!.A.8.;.` 5.b.1X5X:XXX!.V.8.=.5.h.y.V.l.h.I.#X6XeXV.l.r.#.;.l._..X_._.P.r.;.8.h.b.6X:X:X].V.V.V.5.d.5.3.y.I..X*X4X",
"h.r.3.3.d.E._.F.d.=.3.;.#.3.b.b.E.E.h.| / #.8.8.5.8.8.h.E._.F.y.r.h.d.;.=.y.I..X.XI.b.=.#.r.d.h.l.F.].!.y.5.r.8.r.d.5.X.8.P.].XX",
"3.3.=.#.5.y.8.8.h.r.=.r.#.8.;.=.3.8.8.5.5.r.r.3.h.y.5.3.3.3.3.=.5.3.;.r.y.y.r.r.y.3.8.5.3.3.;.8.3.5.8.8.5.8.y.h.5.h.y.3.8.8.8.5.",
"8.y.y.3.{ h l X.5.8.y.3.l.8.;.| h n ` r.h.3.;.r.8.5.5.` w w / 3.;.8.r.8.r.5./ a i T r.8.5.d.r.r.y.{ h l X.y.y.8.r.8.3.8.r.` n M ",
"8.V.{ a a i i < w =.;.d.d.3.$ a h w h h { l.r.5.r.X.w ; M l < w =.#.y.V.#.; w w 7 w < X.h.y.;.3.i 7 l n $ q #.y.=.d.b.{ n h q M ",
"y.#.P { 8.h.b.r.Q a ;.l.5.h | ;.y.r.3.` P X.h.y.;.M ` y.;.r.h./ h #.y.=.h T #.r.d.5.` l =.y.#.h / 8.3.;.y.T h 3.y.d.| G ` 3.8.3.",
"3.P P y.l.y.d.5.8.` 3.8.=.l 8.X.| =.5.y.` ` h.;./ Q 5.A.y.8.3.` n Q ;.;.{ y.5.8.3.3.d.{ 3.3./ M Q =.3.d.F.3.P / 3.r.| #.3.=.#.T ",
"P n T r.h.y.l.V.V.b.;.r.T =.#.T { / { 5.3.;.b.b.=.l.l.8.5.{ P X.X.M Q / y.b.V.V.b.A.V.d.Q G h / ` Q X.5.8.b.b.| h.l.8.8.=.T / { ",
"h.y.;.X.8.h.d.l.A.8.r.l.P =.3.r.y.8.=.{ 5.h.r.V.b.d.d.8.X.=.r.r.r.d.5.{ ;.3.l.r.r.l.3.=.` ;.r.5.5.y.3.{ ;.h.h.d.b.y.y.=.| =.3.h.",
"y.V.y.{ 3.l.y.d.r.8.F.;.d.5.8.b.8.h.d.X.d.F.3.r.F.r.5.;.X.8.h.;.=.F.h.l.5.8.y.r.r.y.8.8.l.h.P.3.5.h.5.X.;.3.r.P.5.8.b.5.X.y.r.y.",
"8.A.E.y.;.8.3.5.5.E.F.| E.A.y.8.8.h.d.y.b.A.d.h.A.I.d.;.y.y.3.r.!.I.r.b.b.d.;.8.y.;.d.V.V.8.F.!.y.3.r.d.5.y.P.P.y.h.F.b.5.8.r.r.",
"y.d.!.V.#.;.;.;.l.].y.y.r.!.F.r.y.5.8.E.!.y.5.=.r.E.A.8.h.d.y.I..Xy.8.r.].E.d.y.8.5.P..Xr.r.y..XF.y.y.d.5.A.E.y.8.3.r._.E.r.y.5.",
";.8.d.I.*X.X!.]._.r.r.l.3.V.].P.I.V.!.XXb.5.8.8.y.r.!.1XXXXX:XXXy.8.8.5.b.!.:X.X].*X#XF.8.d.;.h.#X1X].!.1X].h.r.5.5.8.A..XXX!.!.",
"d.r.;.d.!..XE.I.r.=.8.d.d.;.8.d.F.F.V.r.5.r.y.5.3.r.b.F.I.I.V.5.d.r.3.V.8.b.V._.XXA.l.#.h.d.d.5.5.A.XX*X!.h.8.5.8.h.d.y.V.E.].].",
"X.r.d.5.{ n a M { =.r.5.A.8.#.| l P / =.l.d.=.#.X.5.X.P S M P #.;.8.l.d.d.8.Q $ 7 T =.h.l.d.5.3.5.Q P / | =.3.X.` =.8.d.5./ n M ",
"P.b.;.S q - $ - $ P T h.5.8.a i h h h M T Q Q ` | l - 7 n l i a r.y.I.d.` O X X . X X ;.b.b.d.l.M a w q < q S ` { { ` ` T n h S ",
"b.=.S l T =.r.5.X.n | / =.i X.d.V.h.8.T i Q r.8.3.n l | r.d.8.` q 3.d.{ ; P ;.r.8.r.G O ` l.h.q Q 5.r.#.P a S 5.8.r.` i M ;.d.r.",
"8.=.=.;.3.5.5.;.3./ ` 8.T / =.h.r.5.d.3.G ` 8.5.` / 5.5.| 5.V.d.| { ` ` ` ;.r.r.8.d.=.T ` | #.Q 8.d.3.X.3.#.T { r.8.| G { r.r.#.",
"5.X.#.8.r.y.d.8.h.5.#.=.{ 8.h.8.r.3.8.y.;.X.3.r.| 3.d.r.;.8.d.5.3.;.5.T #.5.b.3.3.d.5.;./ ;.| ;.3.8.5.3.d.d.=.` r.;.| #.8.5.3.8.",
"y.5.d.l.r.5.r.y.y.5.r.8.y.8.r.r.5.d.r.3.r.h.y.r.8.y.8.5.r.r.5.8.r.8.5.h.8.r.5.5.y.3.d.3.d.r.5.d.r.8.8.5.;.r.d.;.r.y.5.3.5.8.r.y.",
";.F.5.y.h.;.h.d.y.y.A.3..X5.y.d.3.r.d.5.l.V.;.y.I.8.3.d.d.8.r.8.r.I.8.P.b.8.3.y.d.;.8.b.A.5.P.8.5.3.8.y.y.8.y.b.d.3.b.h.5.l.d.;.",
"l.V.A.y.d.y.=.5.=.V.F.h.P.P.l.8.l.5.3.l..XP.5.8.V.E.l.5.y.r.5.y.l.I.h.P.I.d.5.5.5.r.d.F.I.l.P.V.r.d.h.d.8.r.V.E.5.r.P.I.h.=.=.h.",
"S 8.#XV.r.l.5.8.!._.b.h.y.P.h.5.X.3.y.!.XXl.8.b.r._._.V.l.y.5.8.F.#.;.l.yX].b.;.5.d.].iXh.;.3.P.8.=.8.h.b.!..Xl.y.;.A.4XE.r.;.T ",
"#.T ` l.!.!..X#X#XA.y.y.5.;.;.3.5.h.d.P.E.h.h.y.b.I.4X5XP.l.b.r.Q X./ =.b.yXeXyXwXiXeXy.;./ { { h.d.d.F.:X9X_.8.d.A.h.A.P.d.h.V.",
"5.=.{ #.b.XX*XI.F.d.y.5.{ | r.h.F.A.;.#.;.;.l.V.l.5.d.l.8.d.V.3.d.=.8.| r.y.].9X0XE.d.h./ 3.8.y.3.!.F.r.F.b.3.h.b.r.5.d.;.8._.P.",
"5.=.d.#.G n a ` =.r.r.3.` 5.3./ i n P #.5.3.8.5.=.r.;.M 7 i ` r.3.r.5.=.=.;.Q i i | ;.=.8.8.5.8.r.{ n l ` 8.y.8.5.y.=.=.3.Q n S ",
"8.y.#.i < a w h l T 3.8.5.| G < M i w i T y.h.8.y.` w ; w a q - 3.8.d.3.{ - q ; 7 q < #.3.h.y.=.i ; w h ; w | 8.r.r.d.{ h i a h ",
"r.3.i Q y.3.y.5.T l 5.;.y.w / 8.3.y.y.G l ;.8.3.;.a T h.d.r.8.` w r.5.8.w G 5.h.y.5.G i r.5.8.q P 5.#.#.8.T l 8.r.d.;.h S y.r.8.",
"r.Q / y.d.5.5.r.8.P | l.Q ` r.r.r.5.8.5.{ ` ;.8.` | 5.d.8.5.5.5.` { 5.Q | 8.r.5.r.r.r.` / r.P Q r.8.5.r.y.5.| / y.5.` / =.3.=.5.",
"8.3.r.d.y.d.r.=.y.r.;.=.=.5.5.r.8.8.l.V.8.3.8.5.| 3.r.d.d.h.d.r.r.#.=.;.r.r.r.d.8.r.3.3.;.;.#.d.y.8.h.l.5.5.5.` ;.;.#.;.y.y.;.3.",
"5.5.y.h.8.3.3.;.;.X.5.h.F.l.r.5.3.5.d.b.y.5.3.#.| ;.5.r.l.h.8.r.=.r.y.l.d.5.;.| | y.3.d.b.5.r.#.3.y.d.y.h.5.| | | X.;.8.h.y.3.3.",
"I.!.E.l.=.` ` | X.X.3.r.A.l.V.b.V.l.h.y.5.;.X.{ 3.=.{ =.b.l.y.A.A.].F.V.=.{ | | / #.{ 3.F.F.XXF.h.b.l.d.5.{ ` 5.{ | ;.8.d.h.l.V.",
"y.E.E.8.| ;.r.8.;.P.y.Q V.E.b.b.h.h.y.r.r.r.5.5.P.V.#./ 3.y.y.b.E.P.r.A.y.=.;.r.r.=.5.d.V.y.F._.V.;.y.r.G X.P.V.3.5.8.r.8.r.y.r.",
"3.V.V.r.3.5.r.y.F.E.h.#.l.E.A.h.r.h.l.l.l.h.y.y.l.]._.y.5.y.l.A.!.b.5.l.A.V.y.=.r.r.I.V.8.3.h._.F.8.r.8.3.E.#Xd.y.y.h.h.d.d.d.5.",
"=.3.5.l.I.P.A._.XXh.3.5.=.r.F.F.I.].!.A.b.y.3.5.#.V..X_.!._..X].d.5.3.X.l.#X1X#X#XXX.Xh.{ 3.d.b._.#XE.F.XX#Xl.=.8.8.y.V.A._..X!.",
";.8.5.y.I.!.F.A.8.y.5.r.#.3.5.b.V.P.V.y.8.8.8.d.y.=.3.A..X].F.r.y.5.b.8.r.y.A.#X.XV.8.h.8.h.y.8.d.P.XXXXI.y.3.h.h.5.3.5.r.F._.I.",
"r.3.y.h.8.r.y.;.r.3.y.3.3.;.d.5.8.5.y.y.3.r.d.=.5.#.=.3.3.8.d.r.r.3.d.r.8.d.;.8.r.3.y.y.y.y.;.8.l.l.y.y.b.y.3.5.8.r.8.y.d.y.8.5.",
"5.8.y.8.{ l n { 5.y.8.d.y.b.3.` n a G 8.V.r.=.5.;.l.y.` n a P 8.d.8.8.l.l.=.Q M h Q 5.l.d.3.5.8.5.T n M T 5.b.y.r.5.d.V.r./ n n ",
"{ 8.| h h l w 7 h | r.F.y.| q $ ; q 7 n =.8.3.r.r.` a i h i - $ { 3.3.8.{ i i 7 7 h l X.d.y.8.Q O < h l i l | r.8.d.y.#.S i 7 < ",
"X.S w S y.A.b.l./ / 8.y.X.q a G / #.T i G r.b.b.b.T ` y.3.| ` h $ G ` / G ` y.l.V.8.P P | { S . a ` ` X.y.X.Q r.l.b.3.M a P ` / ",
"h.` G X.8.y.h.d.A.{ #.=./ S 5.h.h.r.5.| Q X.h.l.#./ 8.V.X.| r.8.{ | X.P Q 8.h.l.h.y.5./ P ` / { 5.y.{ / y.5./ =.h.3./ Q { #.3.8.",
"8.3.8.5.X.8.b.r.y.X.X.5.T 3.d.8.8.;.r.r.` { 5.8.| 5.5.#.=.5.y.y.5.| X.{ #.d.5.r.8.5.h.X./ X.X.8.r.h.y.#.| 5.8.X.3.#.{ | =.8.3.#.",
"r.3.5.y.8.3.5.d.8.y.r.8.#.r.y.r.8.y.d.8.3.r.y.r.3.l.y.=.5.d.r.r.8.8.r.y.r.8.5.r.r.3.3.;.5.y.5.;.5.5.y.r.;.y.y.X.3.y.r.;.3.d.r.=.",
"5.P.A.8.r.l.r.5.5.l.l.r.P.d.r.y.y.h.8.5.l.h.r.r.A.8.5.y.r.r.r.5.8.V.l.h.r.5.d.r.8.d.8.h.h.d.V.d.r.y.r.r.d.5.8.F.5.r.d.h.r.;.3.d."
};
