/* XPM */
static char *_d0bd908c9c54244e44c5b164fd0eeb5bS52svdsnNfQmutD[] = {
/* columns rows colors chars-per-pixel */
"64 64 256 2 ",
"   c #341719",
".  c #362519",
"X  c #2A1528",
"o  c #370F2E",
"O  c #352B2F",
"+  c #481517",
"@  c #481110",
"#  c #573618",
"$  c #4D2B16",
"%  c #643417",
"&  c #481827",
"*  c #4A162E",
"=  c #502F2B",
"-  c #68352B",
";  c #601D1F",
":  c #56561A",
">  c #504E16",
",  c #674817",
"<  c #745716",
"1  c #6D5210",
"2  c #586814",
"3  c #6F6F16",
"4  c #524E2D",
"5  c #725332",
"6  c #536C27",
"7  c #737032",
"8  c #371847",
"9  c #331650",
"0  c #37274E",
"q  c #3A2B66",
"w  c #381465",
"e  c #461A5A",
"r  c #4B1A48",
"t  c #4B3353",
"y  c #65354D",
"u  c #451B68",
"i  c #472767",
"p  c #46336A",
"a  c #59387A",
"s  c #502F70",
"d  c #6E3A76",
"f  c #56504A",
"g  c #6E5250",
"h  c #5B6B58",
"j  c #67765A",
"k  c #78795B",
"l  c #716D52",
"z  c #594978",
"x  c #5B5976",
"c  c #4D4771",
"v  c #685868",
"b  c #765A69",
"n  c #684876",
"m  c #744676",
"M  c #665775",
"N  c #6D4E6B",
"B  c #547075",
"V  c #766766",
"C  c #687967",
"Z  c #767867",
"A  c #68677B",
"S  c #766978",
"D  c #6E7173",
"F  c #3E4E1D",
"G  c #867428",
"H  c #8C6820",
"J  c #8B7354",
"K  c #A96D4D",
"L  c #89566F",
"P  c #A95477",
"I  c #866767",
"U  c #877A77",
"Y  c #967777",
"T  c #916F6E",
"R  c #A97769",
"E  c #A86A70",
"W  c #8C5C5B",
"Q  c #6C8A19",
"!  c #71AF18",
"~  c #6D912C",
"^  c #70AA2E",
"/  c #5D8A2C",
"(  c #78CA14",
")  c #7CC223",
"_  c #53955A",
"`  c #688858",
"'  c #7A8856",
"]  c #689657",
"[  c #71914D",
"{  c #77AE56",
"}  c #4B8778",
"|  c #588779",
" . c #53926B",
".. c #688767",
"X. c #699767",
"o. c #708F70",
"O. c #5AB56B",
"+. c #54AB6A",
"@. c #68A667",
"#. c #77B764",
"$. c #66B677",
"%. c #6EB071",
"&. c #5AA248",
"*. c #7BCB54",
"=. c #6EC36F",
"-. c #5CC46D",
";. c #908E1B",
":. c #918E2F",
">. c #93B230",
",. c #9BA024",
"<. c #8DD319",
"1. c #87C826",
"2. c #94CE31",
"3. c #A3CC2C",
"4. c #9EDD1C",
"5. c #879659",
"6. c #908E51",
"7. c #A48551",
"8. c #8AAE50",
"9. c #898969",
"0. c #9A8867",
"q. c #879768",
"w. c #888677",
"e. c #948E71",
"r. c #A48964",
"t. c #86B171",
"y. c #A4BC45",
"u. c #89D04A",
"i. c #86E551",
"p. c #98C455",
"a. c #3A3495",
"s. c #532788",
"d. c #4A3788",
"f. c #573B86",
"g. c #493996",
"h. c #563A97",
"j. c #4C2991",
"k. c #68369A",
"l. c #74388F",
"z. c #563BAC",
"x. c #6B39AD",
"c. c #561A83",
"v. c #394999",
"b. c #365295",
"n. c #385AA7",
"m. c #394DAC",
"M. c #3B6DAE",
"N. c #494886",
"B. c #594788",
"V. c #585689",
"C. c #48469A",
"Z. c #574898",
"A. c #59549A",
"S. c #495A88",
"D. c #664787",
"F. c #645788",
"G. c #644996",
"H. c #715090",
"J. c #567786",
"K. c #586799",
"L. c #577B97",
"P. c #4F6E88",
"I. c #696789",
"U. c #667887",
"Y. c #7A7686",
"T. c #687699",
"R. c #787796",
"E. c #746A94",
"W. c #484AA8",
"Q. c #5746A7",
"!. c #4857A9",
"~. c #5858A7",
"^. c #5B44B5",
"/. c #4D54B5",
"(. c #6349A9",
"). c #6855A8",
"_. c #7659AA",
"`. c #6847B7",
"'. c #7649BA",
"]. c #6857B7",
"[. c #7757BA",
"{. c #7747A8",
"}. c #4B69AA",
"|. c #5A68A7",
" X c #497AAC",
".X c #5878AA",
"XX c #4968B7",
"oX c #5769B8",
"OX c #4C77B6",
"+X c #5776B6",
"@X c #6669A7",
"#X c #6479A6",
"$X c #7B65B7",
"%X c #7072AE",
"&X c #6D3EC4",
"*X c #3C5CC5",
"=X c #3663C2",
"-X c #4C59C9",
";X c #774AC4",
":X c #714AC7",
">X c #4B68C5",
",X c #4C78C6",
"<X c #5479C5",
"1X c #5071D6",
"2X c #6D73C5",
"3X c #5372E3",
"4X c #843593",
"5X c #8F3194",
"6X c #A82B98",
"7X c #A63892",
"8X c #9231A8",
"9X c #A82CA4",
"0X c #A41FA5",
"qX c #904E93",
"wX c #AA4C86",
"eX c #867688",
"rX c #876899",
"tX c #8A7594",
"yX c #93718F",
"uX c #A36B87",
"iX c #8657A7",
"pX c #894CB3",
"aX c #8869A4",
"sX c #8D74B1",
"dX c #8850C5",
"fX c #8266C5",
"gX c #3A84B4",
"hX c #578687",
"jX c #588597",
"kX c #508D91",
"lX c #688689",
"zX c #689889",
"xX c #688597",
"cX c #6A989A",
"vX c #749697",
"bX c #748590",
"nX c #68A787",
"mX c #6EA892",
"MX c #5987B7",
"NX c #5087AC",
"BX c #669AA4",
"VX c #6695B8",
"CX c #6C8CAE",
"ZX c #5CA4B0",
"AX c #70A5A6",
"SX c #5BA490",
"DX c #3C88CA",
"FX c #5584C7",
"GX c #5783D5",
"HX c #4A84CB",
"JX c #678BC3",
"KX c #5C82E2",
"LX c #8F8C91",
"PX c #8CAD8C",
"IX c #9086A9",
"UX c #84ADA1",
/* pixels */
"b.n.d.u a f.h.k.4Xl.qX5X6XqXU.U.T.E.A 4 4 I.qXwXwXP P E R r.r.7.+ ; @ $         X   X 8 9 e e e 9 r r 8 & + 0 0 N.n.n.n.C.a.a.a.",
"b.b.g.u B.d.g.k.4Xf.l.4X6X7XiXY.D 4 4 f H.qXwXwXwXP P R R r.r.r.@ + . @ @ . . . X . X 8 e e 9 9 8 r r * + & 0 0 N.n.n.!.a.j.a.a.",
"m.v.s.s a d.z.l.qXl.n qX5X7X7XpXrXrXrXqXqX7XwXP P E E R r.r.r.6.% @ @ @   . . . . o X 9 i e 9 * * r r * + o 8 p v.n.m.C.j.j.j.a.",
"a.g.c.s d.d.z.l.l.d D.l.d 7X6X7X5X7X7X7XwXwXP P E R E R r.r.r.5.l @   @ @ @     . . O 9 u e 9 o * * * * & O 8 p n.n.W.C.j.c.a.m.",
"j.s.s d.d.W.h.l.4XH.F.m m 5X5X7X7X7XwX7XwXwXL T R E R 0.r.q.yXLX6.@   @ @   @ @ @ . . w u u 9 o @ * @ + * 9 t a.n.n.m.g.j.j.j.c.",
"c.s.d.d.C.h.k.4X4XD.B.n d m d d m d m L L L L I E R T r.r.IXz aXe.% y qXm qXd ; @ @ O 9 e u w 8 o * o o 8 9 c v.m.n.W.W.j.j.j.j.",
"d.a.a.C.z.k.k.l.D.D.D.B.n n N N M x M n N m L I T R T 6.LXH.v tXw.- H.{.iXpXH.rXy @ . 0 w i u u 9 * 9 r e t a a.m.n.a.z.x.j.j.a.",
"j.g.g.h.k.l.4Xl.n H.D.B.B.z x x x B P.B x M N L I T R 9.LXm I q.9.= {.H.N g m aXaX+ . 8 q e u e u s s d s s d B.v.n.m.z.z.z.j.j.",
"k.h.k.x.l.l.l.D.F.F.A.D.B.x B B C ....C P.S.M W I V 9.q.LXm N 5.4 m H.t f f t S aXy + o 0 q p s i s d f.a a s a N.m.n.W.W.Q.j.k.",
"k.k.k.l.l.d z F.V.V.S.V.V.B B D q.5.5.' C P.x I W C k q.LXH.y N m {.t t f tXeXeXyX= $ 0 q q p p s a G.A.).A.D.a a Z.n.W.C.Q.h.h.",
"h.h.h.f.B.B.V.S.S.S.S.S.S.B ..U 9.C h j C B M V l ..' q.LXqXy y {.'.f 0 f N yXyXg & O 0 q q p p f.G.~.!.~.A.~.A.a f.m./.Q.Z.Z.Z.",
"W.Z.Z.C.S.N.S.B B S.P.P.P.B o.rX9.C V.x x x v V Z ..k 8.LXH.f f d _.p t t f g f = O 0 q q q p a A.A.~.~.|.~.~.~.f.a m.-X/.!.!.W.",
"A.C.S.N.N.S.P.P.P.P.P.B B B ..E.LX' A v h v V k J 7.J 5.LXH.7 &.x x.z p t 0 0 O 0 0 q q a.s s d.Z.A.@X2X].|.~.~.f.h.m.=X=X-X/.~.",
"~.|.K.K.K.|.K.L.J.jXhXhXP.} ..S eXS ' 6.k k 6.:.:.7.6.q.tXv &.&.A D.x.s p p q q q q q s.s.s.s.d.Z.~.].Q.~./.!.~.B.h.m.=X-Xn.-X-X",
"-X-XXXoXoX+X+X.XNXjXhXhXhXB B X.U w.9.9.9.6.5.6.6.K :.q.tXh _ ] ] V.G.k.s s s q s s.d.f.f.D.a s.d.Q.].~.).~.~.Z.B.Q.W.XX-X>X=X-X",
"-X-X-X3X1X-X1X<X+X.X.XjX}  .} } [ U V 9.q.5.6.' 6.6.[ LXv ` [ [ ] | G.{.`.s.s j.j.s.z x B U.I.B.s.N.~.~.G.H.D.D.Q.m.m.m./.-X-X*X",
"-X3X3X3X3X3X3X3X1X<X+X.XjX| } }  .` ' U N N U 5.[ 8.e.rXj h - j [ X.V.(._.:Xh.s.h.z A I.B.f.F.I.D.j.~.].(.Z.Q.!.W.W.W./././.-X-X",
"-X3X3XKXGXGXKXGX1XGXGXHXMXL.} } } } ` 6.r.N g yXw.yXE.h ] 4 f ' o.o.B.Q.).:X`.s.D.x I.N.B.Z.Z.V.V.f.A.oX-XoXoX].oX@X%X%XoX-X-XoX",
"-X1X3XGXVXCXCXVXJXGX1XHX<XMXJ.} B } _ ' 6.U h v b v h ] l 5 j ' U Z Z.Q.).].).B.M A V.B.Z.G.Z.z I.h.Z.|.@X@X|.#XxX#X%X#X#X%X%XoX",
">X>X1XJXhXzX| bXlXVXJXHXHXHXL.kX} _ _ _ 5.9.J l [ &./ f l ] 5.w.U S h.Q.].].).M x A B.f.A.Z.Z.Z.F.d.~.A.A.|..XxX#X+X+X+XFX+X%X#X",
">X>X3XMX| X.| zXlXxXCXFXDXDXkX} }  ._  .@.X.o.0.V j V w.e.w.9.yXY M g.^.].].).M v A z h.G.A.B.I.Z.B.A.V.A.T..X#X+X<XFXGXGXHXFXCX",
"+X,X1XBXo.kXCXjXL.CX+XHXNXgXP.} } _ +.$.O.+.@.] Y w.Y I V Y e.e.U Y.B.Q.Q.'.A.S A A V.N.Z.F.H.Z.d.Z.Z.A.K.L.T.+X<XGXGXGXGXGXGXFX",
"+X1XFXzX .hXNX X X.X XMXNXNXkX} _ +.-.-.-.-.O.O.' Y g k V v V S w.eXF.h.Z.z.G.D V A I.V.h.f.f.h.Z.B.K.K.L.jXT.<X2XJXGXHXDXHXHXJX",
",X1XMX .+.hXjXNXNXNXNX XkX} } _ +.O.$.-.$.=.-.O.] I C O.{ #...b S U S Z.C.`.).Z D D I.x V.V.Z.V.V.P.B B J.L.#X<XJXVXGXHXGX<X<X+X",
"HXVXkX+. ._ } } } } } } } _ _ +.O.nX-.$.$.O.=.O.{ b [ #.8.8.#.@.M M S I.Z.^.(.V V V A x A B B B ..{ u.X.B P.#X<X<XCXFXFXFXMX,X,X",
"kX .X.+.@.+.+.+.+.} _ +.+.+.+.-.hXnX$.$.=.=.-.O.o.g #.8.8.8.*.&.@.A n S A h.Z.b V D D I.M { 2.u.*.*.*.2.u. .%X+X<XCXSXMXFXHXHXMX",
"zX$.%.zXlXmX$.%.O.-.+.+.$.O.$.nXU.nX%.t.O.O.$.O.j { 8.{ ^ 8.{ { X.x D.x I.B.x.N v D S v j u.8.#.%.*.=.*.u.{ T.+X+X<XCXBXcXSXSX$.",
"SXBXBXBXcXlXU.lXhX} kXkXlXlXJ.J.lX%.=.6.%.@._ ] #.u.{ ^ { { #...z V k k j A x G.b S b b 8.u.@.| J.J.J.=.*.i...#X+XMX2XMXMXSXSXBX",
"MXNXNXBXBXAXAXvXcXAXcXcXcXvXvXcXAXo.=.q.7.t.#.{ { ..D C [ %.D n :.1.( 1.1.>.^ ` M F.V V 8.o.B %.bXNXL.B i.i.@.xX#X.XMX2X+X%XJX+X",
"MXMXVXVXVXBXmXAXAXAXlXbXR.U.bXbXxXcXnX%.5.K 7.5.I m D.f.Z.z a >.<.<.3.>.5.X.| X.X...M b 5.] %.#..XJ.J.J.*.i.X.NXCX.XCXUXvXCXJXJX",
"JXJXVXVXZXBXAXAXAXcXR.E.U.lXUXmXbXxXbX$.=.%.q.K K K P L d N 6.4.>.8.8.[ &.^ ^ ^ _ hXC v l 8.@.zXkXB B B i.i....XxX#XCXLXUXAXVXJX",
"JXVXVXVXBXBXBXAXzXbXT.I.I.I.D mXmXlXlXlX=.$.nXq.,.3.>.:.K 6.<.>.o.[ { ) ) ! >.^ ^ ^ | B V 5.@.| L.#.*.*.i.*.| MXxXT.UXLXLXIXUXUX",
"zXmXBXZXZXZXAXBXxXR.I.T.T.I.U.U.nXvXlXA nX=.=.o.3.4.4.4.4.4.3.hX@.! 1.>.y.3.y.6.[ @.~ zXM 5.{ %.L.} u.i.*.| #XT.R.vXUXLXIXLXPXPX",
"vXcXSXZXZXZXAXlXR.T.T.#X|.U.B J.B vXU.U.%.$.nXt.:.5.y.3.4.4.@.zX~ 2.p.2.<.u.3.y.J hX^  .N 5.@.%..XB 4 4 H.qXqXwXuXUXPXPXLXIXLXIX",
"CXvXvXcXZXZXcXbXT.T.#X@XE.I.L.L.J.vXo.T.SXmXSXt.t.gXgXo.,.3.jX@.) 2.2.( 3.l H.J W ] { | v 5.] $.jXlXT.E.iXwXP P P PXPXt.e.LXIXIX",
"sXIXCXxXBXBXjXLX%XxX|.|.@XJ.mXlXzXlXlXbXmX%.SXSXNX,XDXNX6.5.NX[ 2.4.<.<.8.V 5.I 5.kXo.B l { #.*.%.*.#.q.qX7XwXP Y PXt.t.t.yXIXIX",
"IXsXbXxXxXL.bXR.@X#X@X|.@XI.cXbXbXU.lXU.cXzXnXkXgXHX,XMX XNXjX~ <.<.( 1.>.V @.lXo.lXD l 8.X.*.*.i.u.u.u.5.wXP P PXPXPXt.t.LXLXtX",
"LXsXsXCXxXT.bXR._.|.~.K.|.E.xXlXU.lXbXJ.K.K.K.nXnXkXOX+XOX<X.X[ ( 4.( <.2.>.j V h v 6.8.] *.*.u.>.[ C C { P wXT e.PXPXt.=.t.e.e.",
"tXtXsXbXxXbXLXR.).oXA.K.#X@XK.xXxXU.K.J.hXo.mXnXnXBXHX,X+XoXOX[ ! <.( <.u.1.3.2.y.2.{ | zX#.p.>.' j C A ` Y P I e.PXPXt.t.w.LXeX",
"sXtXsXIXIXR.LXR.).|.~.|.K.@X@X@X@XU.lXnXzX XL.M.}.OXOXOX,X+XXXzX/ <.( ( ( 2.1.>.u.#.o.X.#.p.>.:.l ..l b v V P L ..p.t.=.q.E.sXaX",
"sXsXsXIXIXIXLXbX%X_.).~.~.K.@XK.lXzXhX}.M.n.M.>XXXXX}.OX,X>X1XjX] 3 ) ( ! ( ( ( ) ) >.>.,.,.,.;.;.G l V V l b L I =.u.#.tXsXsXsX",
"sXsXIXIXIXIXyXsXtXtXaX@XQ.A.~.J.zX}.*XM.M.XXXX>X>X>XXXXX}. X>XOX@./ 2 Q ! ! ! ! ( ( ) ) 3.>.,.,.,.,.;.;.7 Z V b L [ #.o.E.sXsXsX",
"sXsXIXsXaX$XiX[.pXaXrXiXaX).Q.!. X}.!.>XOXoX+X<XoXXX+XOXoXXX+XOXzX .2 > 2 2 / Q ! ! ) ^ >.,.,.;.H H 3 7 l 7 l k L V { #.tXfXsXsX",
"IXsXaXaXiXsXpXfXdX;X;X[.iXaX_.~.K.}.M.oXoXOX}. X XOXOX+X.X}.XXOXbXhX/ : > > > > 6 Q 1.1.,.,.3 1 1 H H H 3 f j ` V L J { U sXfXsX",
"pXiXfXsXfXfX;X[.'.'.:X:X'.pXrX~./.}.!.+XoX XM.gX+X.X XOX#X}.XX>X.Xo. .2 2 2 F > > / ! ;.;.1 < H H 7 3 G G G 7 j C W V 8.w.E.2XiX",
"2X2X$XfX;X[.`.'.`.;X`.:X;X&XiX{.!.!.}.oX+X XM. X.X.XMX+X+X|.}.OXOXlXgXQ 2 2 2 : > / ! ^ 1 < H 7 7 J J J H H H j C I J 8.w.@XpX2X",
"sX%X_.$X'.;X;Xx.z.x.&X&X&X&XiX_.~.!.}.|.NXM.gXM..X|.|.}.}.oXOXOXNXNXkX3 3 2 2 > > 6 ^ 2 1 H g g :.eXU 0.:.H H l C I J q.U E.%X$X",
"rXI.%X:X`.;X`.z.`.:X&X&X&X;XiX).!.!./..X+X.XjXNX X.X|..X.X XNXDX=XNX&.2 3 3 > > > 6 Q , 3 7 g l 5.R.6.G G H < B ' l 9.9.eXR.tXtX",
"R.I.[.`.'.;Xx.^.`.:X:X:X:XpX[.Q.!./.oX@X#XK.|.L.L.NXOXgXgXgXHXgX} / 2 Q Q 2 F : 4 2 / , G 5 N l 6.eXo.' 7 j ` o.k 9.e.w.Y w.Y tX",
"Y.M _.`.'.;Xx.z.~.:X:X:X;X_.Q./.m.}.|.T.(.-XQ.~.jXgXM.kXkX . .~ 2 Q Q Q 2 > > 4 : 2 3 , 3 5 N N 6.6.tXZ 9.6.' Z 9.9.e.e.0.r.r.LX",
"eXA _.`.'.'.&Xz.z.^.^.^.^.^.W./././.~./.`.~.f h J.NX .! ~ Q Q Q ~ Q h 6 F > 4 : 1 1 < , < G g y g 6.6.0.q.9.9.0.0.r.7.K T J r.yX",
"S A _.`.x.x.;X'.z.z.W.z.m.m./.W./.^.:X`.`.f # > D hX..| C ..| h h h 4 F > > : 2 2 < < , < 3 g y s n g J K 7.J J J I b b I I r.e.",
"S F.[.].`.x.x.pX&X;X&Xx.z.x.:X:X;X;X;X[.].= > > C hX..4 f 4 4 4 > : , < 1 1 1 1 < 1 , % % 3 ;.H y f.f.d n N N N N N n M V T e.Y ",
"F.G._.[.`.`.x.8X8Xx.x.x.;X;X:X`.x.pXfX[.).4 4 > h _ h , 4 4 4 $ $ # # , > , , , , , , # % < Q G 5 y s s.B.D.E.S S D S Z U eXY S ",
"N.)._.].].^.x.x.8X5X5X8X5X0X8X8X8Xx.[.$X].= h h U.^ 4 T Y Y uXY T l g # = # # > , , # % % % ;.;.:.5 5 y i f.G.G.A eXU U U U I.F.",
").).[.).(.Q.z.z.x.x.5X8X0X9X0X0X0X8Xx.[.).4 v L.[ j V eXY.bXU.R.rXyXyXuXW = # # # # % % % % 3 ;.;.5 g y y * s.'.^.G.F.A F.G.Z.Z.",
"].(.Q.Q.Q.Q.Q.^.x.5X5X6X9X9X9X0X0X5X8X[.(.f g h h g U T S I eXR.R.aXqXyXuXE = - = # - % $ ; H < < H 5 y y * 8 d.(.`.`.(.(.(.(.`.",
"f.h.g.g.C.h.Q.^.k.5X8X0X6X9X8XpX6X8X8X;X`.v J g g T I I I S Y.R.%XaXqXyXuXuXg = = > > # $ ; % H 5 5 - y y t o 9 0 a h.`.(.G.(.h.",
"e i a f.g.g.z.z.5X5X0X6X9XdXdXdX9X6X8X;Xx.F.g P I U S eXE.R.E.E.qXqXqXyXyXE 5 = # O = $ ; @ ; % - - % - = r 0 O 9 9 9 0 e i i e ",
"u 0 i z h.g.W.k.4X5X5X0XpXpXdX8X8X6X9X;X&X|.4 I I Y.E.iXiXiXiXqXqXqXuXuXE W $ ; O O O & + ; @ + ; ; ; = t = O 0 9 9 t p c c c p ",
"a t e p Z.d.z.k.4X4X8X9XpX].dX8X9X9XdX:Xx.|.4 W eX_.iXqXqXqXqXqXuXuXE T g . = . O O X o o o o o & @ @ * = 0 O 8 9 t f c c S.b.N.",
"b.a.i i B.d.W.k.4Xl.7X9XiX%XdX8X8X8XdXx.].I.> l qXqXqXqXqXP wXE P E g $ & = . O X X X X   o o * * & & @ & r 0 0 0 c N.b.M.n.b.b.",
"b.v.s u a N.z.k.4Xl.7X6XiXT._.;XdXdX:X].T.f 4 qX4XwXwXP P E E K 5 # . = .   . O X   X X o 8 9 r r r * & + = 0 9 c c b.M.n.n.n.n.",
"n.v.d.w a f.h.l.l.l.5X7X8XE.T.].`.].).|.f > M qXqXP P E R R R 7.$ $ $ =     X X X X X o 8 9 w e r e r * + & 0 0 c b.n.n.n.v.v.b."
};
